<?xml version="1.0" encoding="UTF-8" standalone="no"?>
<svg
   xmlns:dc="http://purl.org/dc/elements/1.1/"
   xmlns:cc="http://creativecommons.org/ns#"
   xmlns:rdf="http://www.w3.org/1999/02/22-rdf-syntax-ns#"
   xmlns:svg="http://www.w3.org/2000/svg"
   xmlns="http://www.w3.org/2000/svg"
   xmlns:xlink="http://www.w3.org/1999/xlink"
   xmlns:sodipodi="http://sodipodi.sourceforge.net/DTD/sodipodi-0.dtd"
   xmlns:inkscape="http://www.inkscape.org/namespaces/inkscape"
   sodipodi:docname="sugarappstore.svg"
   inkscape:version="1.0 (4035a4fb49, 2020-05-01)"
   id="svg8"
   version="1.1"
   viewBox="0 0 210 297"
   height="297mm"
   width="210mm">
  <defs
     id="defs2">
    <linearGradient
       id="linearGradient935"
       inkscape:collect="always">
      <stop
         id="stop931"
         offset="0"
         style="stop-color:#ffff00;stop-opacity:1;" />
      <stop
         id="stop933"
         offset="1"
         style="stop-color:#ffaa00;stop-opacity:1" />
    </linearGradient>
    <linearGradient
       id="linearGradient927"
       inkscape:collect="always">
      <stop
         id="stop923"
         offset="0"
         style="stop-color:#ff5f00;stop-opacity:1;" />
      <stop
         id="stop925"
         offset="1"
         style="stop-color:#ff0000;stop-opacity:1" />
    </linearGradient>
    <linearGradient
       id="linearGradient867"
       inkscape:collect="always">
      <stop
         id="stop863"
         offset="0"
         style="stop-color:#00ff00;stop-opacity:1" />
      <stop
         id="stop865"
         offset="1"
         style="stop-color:#00ffff;stop-opacity:1" />
    </linearGradient>
    <linearGradient
       id="linearGradient859"
       inkscape:collect="always">
      <stop
         id="stop855"
         offset="0"
         style="stop-color:#0000aa;stop-opacity:1;" />
      <stop
         id="stop857"
         offset="1"
         style="stop-color:#7f00aa;stop-opacity:1" />
    </linearGradient>
    <linearGradient
       gradientTransform="matrix(0.53705167,0,0,0.53705167,51.798693,57.496531)"
       gradientUnits="userSpaceOnUse"
       y2="111.45389"
       x2="149.15369"
       y1="111.45389"
       x1="72.415852"
       id="linearGradient861"
       xlink:href="#linearGradient859"
       inkscape:collect="always" />
    <linearGradient
       gradientTransform="matrix(0.53705167,0,0,0.53705167,51.798693,57.496531)"
       gradientUnits="userSpaceOnUse"
       y2="95.806541"
       x2="144.11264"
       y1="164.85373"
       x1="81.44809"
       id="linearGradient869"
       xlink:href="#linearGradient867"
       inkscape:collect="always" />
    <linearGradient
       gradientTransform="matrix(0.53705167,0,0,0.53705167,51.798693,57.496531)"
       gradientUnits="userSpaceOnUse"
       y2="80.74855"
       x2="168.88051"
       y1="175.6387"
       x1="78.069656"
       id="linearGradient929"
       xlink:href="#linearGradient927"
       inkscape:collect="always" />
    <linearGradient
       gradientTransform="matrix(0.53705167,0,0,0.53705167,51.798693,57.496531)"
       gradientUnits="userSpaceOnUse"
       y2="120.47636"
       x2="156.04524"
       y1="120.47636"
       x1="59.74338"
       id="linearGradient937"
       xlink:href="#linearGradient935"
       inkscape:collect="always" />
    <linearGradient
       gradientTransform="matrix(0.58724135,0,0,0.58724135,47.291168,49.816383)"
       gradientUnits="userSpaceOnUse"
       y2="158.59195"
       x2="82.974495"
       y1="158.59195"
       x1="19.527185"
       id="linearGradient988"
       xlink:href="#linearGradient859"
       inkscape:collect="always" />
    <linearGradient
       gradientTransform="matrix(0.58724135,0,0,0.58724135,47.291168,49.816383)"
       gradientUnits="userSpaceOnUse"
       y2="135.15898"
       x2="73.04879"
       y1="135.15898"
       x1="41.834"
       id="linearGradient996"
       xlink:href="#linearGradient859"
       inkscape:collect="always" />
    <linearGradient
       gradientTransform="matrix(0.58724135,0,0,0.58724135,46.524938,50.881205)"
       gradientUnits="userSpaceOnUse"
       y2="118.42435"
       x2="102.30289"
       y1="118.42435"
       x1="54.754272"
       id="linearGradient1004"
       xlink:href="#linearGradient859"
       inkscape:collect="always" />
    <linearGradient
       gradientTransform="matrix(0.53705166,0,0,0.53705166,77.283394,4.0289799)"
       gradientUnits="userSpaceOnUse"
       y2="-62.318707"
       x2="176.5144"
       y1="-46.402683"
       x1="158.47295"
       id="linearGradient1030"
       xlink:href="#linearGradient859"
       inkscape:collect="always" />
  </defs>
  <sodipodi:namedview
     inkscape:window-maximized="1"
     inkscape:window-y="0"
     inkscape:window-x="0"
     inkscape:window-height="1054"
     inkscape:window-width="1920"
     showgrid="false"
     inkscape:document-rotation="0"
     inkscape:current-layer="g849"
     inkscape:document-units="mm"
     inkscape:cy="639.80801"
     inkscape:cx="489.95415"
     inkscape:zoom="0.98994949"
     inkscape:pageshadow="2"
     inkscape:pageopacity="0.0"
     borderopacity="1.0"
     bordercolor="#666666"
     pagecolor="#ffffff"
     id="base" />
  <metadata
     id="metadata5">
    <rdf:RDF>
      <cc:Work
         rdf:about="">
        <dc:format>image/svg+xml</dc:format>
        <dc:type
           rdf:resource="http://purl.org/dc/dcmitype/StillImage" />
        <dc:title></dc:title>
      </cc:Work>
    </rdf:RDF>
  </metadata>
  <g
     id="layer1"
     inkscape:groupmode="layer"
     inkscape:label="Layer 1">
    <g
       id="g849">
      <circle
         inkscape:export-ydpi="299.97479"
         inkscape:export-xdpi="299.97479"
         inkscape:export-filename="/home/srevinsaju/sugarappstore_small_png.png"
         r="47.595131"
         cy="123.79425"
         cx="111.605"
         id="path1060"
         style="fill:#ffffff;fill-opacity:1;stroke:none;stroke-width:0.863018;stroke-linecap:round;stroke-miterlimit:4;stroke-dasharray:none;stroke-opacity:1" />
      <path
         inkscape:export-ydpi="299.97479"
         inkscape:export-xdpi="299.97479"
         inkscape:export-filename="/home/srevinsaju/sugarappstore_small_png.png"
         sodipodi:open="true"
         d="m 89.248854,114.83559 a 21.158333,21.158333 0 0 1 20.140386,-13.78913 21.158333,21.158333 0 0 1 19.73314,14.36588 21.158333,21.158333 0 0 1 -6.93538,23.40247 21.158333,21.158333 0 0 1 -24.374152,1.29458"
         sodipodi:arc-type="arc"
         sodipodi:end="2.132547"
         sodipodi:start="3.4972259"
         sodipodi:ry="21.158333"
         sodipodi:rx="21.158333"
         sodipodi:cy="122.20258"
         sodipodi:cx="109.08323"
         sodipodi:type="arc"
         id="path878"
         style="fill:none;fill-opacity:1;stroke:url(#linearGradient937);stroke-width:10.7298;stroke-linecap:round;stroke-miterlimit:4;stroke-dasharray:none;stroke-opacity:1" />
      <path
         inkscape:export-ydpi="299.97479"
         inkscape:export-xdpi="299.97479"
         inkscape:export-filename="/home/srevinsaju/sugarappstore_small_png.png"
         sodipodi:open="true"
         style="fill:none;fill-opacity:1;stroke:url(#linearGradient929);stroke-width:15.2581;stroke-linecap:round;stroke-miterlimit:4;stroke-dasharray:none;stroke-opacity:1"
         id="path878-0"
         sodipodi:type="arc"
         sodipodi:cx="108.85043"
         sodipodi:cy="122.20156"
         sodipodi:rx="30.087851"
         sodipodi:ry="30.087851"
         sodipodi:start="5.7452049"
         sodipodi:end="2.1119348"
         sodipodi:arc-type="arc"
         d="m 134.68823,106.78446 a 30.087851,30.087851 0 0 1 -4.59609,36.72599 30.087851,30.087851 0 0 1 -36.740324,4.48009" />
      <path
         inkscape:export-ydpi="299.97479"
         inkscape:export-xdpi="299.97479"
         inkscape:export-filename="/home/srevinsaju/sugarappstore_small_png.png"
         id="path853"
         d="m 95.540539,146.0315 c -0.826577,-0.21485 -1.361973,-0.45192 -2.026642,-0.89736 -1.882011,-1.26128 -2.946893,-3.40921 -2.812839,-5.67367 0.07296,-1.23248 0.419262,-2.24891 1.138091,-3.34042 0.152156,-0.23105 2.364515,-2.50274 5.200107,-5.33958 2.714407,-2.7156 4.982194,-4.99612 5.039534,-5.06782 0.0956,-0.11953 -0.31614,-0.55161 -4.944182,-5.1888 -3.299194,-3.30571 -5.155863,-5.2196 -5.35848,-5.52362 -0.38939,-0.58426 -0.684304,-1.23127 -0.894761,-1.963 -0.234244,-0.81445 -0.233278,-2.43151 0.0019,-3.25919 0.711041,-2.50194 2.63042,-4.26275 5.119852,-4.69687 0.782952,-0.13654 1.365643,-0.136 2.156901,0.002 1.02064,0.17798 1.91248,0.54476 2.71777,1.11771 0.20107,0.14306 2.62007,2.50819 5.37557,5.25585 2.75549,2.74767 5.03697,4.99576 5.06993,4.99576 0.033,0 2.32074,-2.25501 5.08393,-5.01113 2.76319,-2.75613 5.18659,-5.12879 5.38532,-5.2726 1.67875,-1.21476 4.0544,-1.51385 6.0136,-0.7571 1.22887,0.47466 2.31614,1.34652 3.04472,2.44151 0.79425,1.19369 1.10692,2.34564 1.04268,3.84156 -0.0557,1.29732 -0.38114,2.29833 -1.09512,3.3686 -0.12072,0.18095 -2.50899,2.62323 -5.30726,5.42727 l -5.08778,5.09826 5.11603,5.13766 c 5.68419,5.70822 5.55352,5.55609 6.09231,7.09252 0.26259,0.7488 0.26312,0.75285 0.26211,1.99326 -0.001,1.1657 -0.0138,1.28155 -0.20689,1.86439 -0.5873,1.77266 -1.711,3.09155 -3.29841,3.87137 -1.00029,0.49139 -1.73414,0.66182 -2.84708,0.66117 -1.35533,-5.4e-4 -2.58494,-0.36874 -3.67271,-1.09904 -0.19409,-0.13031 -2.64764,-2.52653 -5.45234,-5.32494 l -5.09944,-5.08802 -5.17303,5.1543 c -5.43726,5.41757 -5.39087,5.37606 -6.575453,5.88394 -1.184077,0.50766 -2.749128,0.62326 -4.007984,0.29604 z m 14.282781,-36.19222 c -3.73735,-0.53769 -7.00143,-3.03766 -8.40793,-6.43965 -0.78444,-1.8974 -1.03983,-3.857175 -0.75372,-5.783998 0.65092,-4.383714 3.89564,-7.899408 8.24222,-8.930533 0.75607,-0.179362 0.94447,-0.194692 2.39264,-0.194692 1.44399,0 1.63799,0.01568 2.3833,0.192587 4.46553,1.059958 7.69849,4.630111 8.29673,9.162055 0.11565,0.8761 0.0453,2.651861 -0.13902,3.509451 -0.29062,1.35215 -0.87002,2.72557 -1.63448,3.87437 -0.52721,0.79225 -1.81444,2.10643 -2.63751,2.6927 -1.23522,0.87986 -2.90056,1.58775 -4.33151,1.84121 -0.92827,0.16443 -2.5472,0.20074 -3.41072,0.0765 z"
         style="fill:url(#linearGradient869);fill-opacity:1;stroke-width:0.0731137" />
      <path
         inkscape:export-ydpi="299.97479"
         inkscape:export-xdpi="299.97479"
         inkscape:export-filename="/home/srevinsaju/sugarappstore_small_png.png"
         id="path851"
         d="m 95.540542,146.0315 c -0.826577,-0.21485 -1.361974,-0.45192 -2.026645,-0.89736 -1.882012,-1.26128 -2.946894,-3.40921 -2.812841,-5.67367 0.07296,-1.23248 0.419266,-2.24891 1.138093,-3.34042 0.152158,-0.23105 2.364515,-2.50274 5.200111,-5.33958 2.714404,-2.7156 4.9822,-4.99612 5.03953,-5.06782 0.0956,-0.11953 -0.31613,-0.55161 -4.944182,-5.1888 -3.299195,-3.30571 -5.155863,-5.2196 -5.358482,-5.52362 -0.389389,-0.58426 -0.6843,-1.23127 -0.89476,-1.963 -0.23424,-0.81445 -0.233279,-2.43151 0.0021,-3.25919 0.711046,-2.50194 2.63042,-4.26275 5.119853,-4.69687 0.782952,-0.13654 1.365642,-0.136 2.156902,0.002 1.02064,0.17799 1.912469,0.54477 2.717769,1.11772 0.20106,0.14306 2.62007,2.50819 5.37557,5.25585 2.75549,2.74767 5.03696,4.99576 5.06993,4.99576 0.033,0 2.32073,-2.25501 5.08392,-5.01113 2.7632,-2.75613 5.18659,-5.12879 5.38532,-5.2726 1.67876,-1.21476 4.05441,-1.51385 6.01361,-0.7571 1.22886,0.47465 2.31613,1.34652 3.04471,2.4415 0.79426,1.1937 1.10693,2.34565 1.04268,3.84157 -0.0557,1.29733 -0.38114,2.29833 -1.09512,3.3686 -0.12072,0.18095 -2.50898,2.62323 -5.30726,5.42727 l -5.08777,5.09827 5.11602,5.13765 c 5.6842,5.70822 5.55352,5.55609 6.09232,7.09252 0.26258,0.7488 0.26311,0.75285 0.26211,1.99326 -0.001,1.1657 -0.0138,1.28155 -0.2069,1.86439 -0.5873,1.77266 -1.71099,3.09155 -3.29841,3.87137 -1.00028,0.49139 -1.73414,0.66182 -2.84707,0.66117 -1.35534,-5.4e-4 -2.58494,-0.36874 -3.67272,-1.09904 -0.19409,-0.13031 -2.64764,-2.52653 -5.45233,-5.32494 l -5.09945,-5.08801 -5.17302,5.15429 c -5.43727,5.41757 -5.39088,5.37606 -6.575453,5.88394 -1.184076,0.50766 -2.749125,0.62326 -4.007985,0.29604 z m 2.684732,-3.87917 c 0.338331,-0.16566 1.421543,-1.21585 6.681926,-6.47823 3.45296,-3.45428 6.32775,-6.28051 6.3884,-6.28051 0.0607,0 2.93986,2.82777 6.39822,6.28393 5.12605,5.12278 6.36223,6.32174 6.69005,6.48861 0.36318,0.18488 0.47294,0.20433 1.13327,0.20094 0.67278,-0.003 0.76693,-0.0222 1.17973,-0.23424 1.31603,-0.67612 1.81125,-2.37846 1.0579,-3.63659 -0.0963,-0.16085 -3.00762,-3.12999 -6.46957,-6.5981 l -6.29446,-6.30564 6.37012,-6.37958 c 3.50357,-3.50876 6.40875,-6.45538 6.45598,-6.54803 0.42959,-0.84282 0.37139,-1.99734 -0.13663,-2.7108 -0.21724,-0.30509 -0.76461,-0.77456 -1.07454,-0.92163 -0.35533,-0.16862 -1.03936,-0.25599 -1.50622,-0.19238 -0.83882,0.11428 -0.69302,-0.0172 -7.4258,6.69626 -3.46945,3.45949 -6.32468,6.30476 -6.34496,6.32281 -0.0203,0.018 -2.88999,-2.81628 -6.37712,-6.29852 -7.187634,-7.17753 -6.654648,-6.72082 -7.841167,-6.71893 -0.778827,10e-4 -1.272507,0.1911 -1.814075,0.69768 -0.833423,0.77956 -1.031955,1.98913 -0.504657,3.07463 0.094,0.19349 2.284634,2.43783 6.473809,6.63251 3.48246,3.48702 6.31688,6.35636 6.29872,6.3763 -0.0182,0.0199 -2.86477,2.87527 -6.3258,6.34517 -6.424151,6.4406 -6.440246,6.45803 -6.677543,7.22802 -0.385452,1.25072 0.581477,2.85805 1.893602,3.14775 0.504393,0.11136 1.336044,0.0215 1.770815,-0.19143 z m 11.598046,-32.31305 c -3.73735,-0.5377 -7.00143,-3.03766 -8.40793,-6.43966 -0.78444,-1.89739 -1.03983,-3.857165 -0.75372,-5.783991 0.65092,-4.383714 3.89565,-7.899408 8.24222,-8.930532 0.75607,-0.179362 0.94447,-0.194692 2.39264,-0.194692 1.44399,0 1.63799,0.01568 2.3833,0.192586 4.46553,1.059959 7.69849,4.630111 8.29673,9.162056 0.11565,0.876099 0.0453,2.651863 -0.13902,3.509453 -0.29062,1.35215 -0.87002,2.72556 -1.63448,3.87437 -0.52721,0.79225 -1.81444,2.10643 -2.63751,2.6927 -1.23522,0.87985 -2.90056,1.58775 -4.33151,1.84121 -0.92827,0.16442 -2.5472,0.20073 -3.41072,0.0765 z m 2.78926,-3.84893 c 1.12568,-0.21598 2.19176,-0.72636 3.13661,-1.50165 0.36591,-0.30025 0.66623,-0.56895 0.66737,-0.59712 10e-4,-0.0281 0.12524,-0.18953 0.27576,-0.35857 0.56882,-0.6388 1.10144,-1.70958 1.37456,-2.76342 0.16554,-0.63877 0.18945,-2.505969 0.0393,-3.07077 -0.28144,-1.058738 -0.68297,-1.91015 -1.26249,-2.677035 -1.00074,-1.324283 -2.26639,-2.147662 -4.04833,-2.63367 -0.48464,-0.132181 -2.41787,-0.133034 -2.96111,-0.0013 -2.4273,0.588584 -4.31528,2.263699 -5.08057,4.50776 -0.2979,0.873546 -0.34534,1.175384 -0.35047,2.229968 -0.006,1.264377 0.14758,1.995227 0.63819,3.034217 0.84627,1.79219 2.5813,3.24067 4.47126,3.73281 0.84756,0.22071 2.23415,0.2649 3.09991,0.0988 z"
         style="fill:url(#linearGradient861);fill-opacity:1;stroke-width:0.0731137" />
      <rect
         inkscape:export-ydpi="299.97479"
         inkscape:export-xdpi="299.97479"
         inkscape:export-filename="/home/srevinsaju/sugarappstore_small_png.png"
         transform="rotate(45)"
         ry="2.7987094"
         y="-29.439386"
         x="163.60281"
         height="8.4779367"
         width="8.4779367"
         id="rect921"
         style="fill:#00fff0;fill-opacity:1;stroke:url(#linearGradient1030);stroke-width:3.83973;stroke-linecap:round;stroke-miterlimit:4;stroke-dasharray:none;stroke-opacity:1" />
      <circle
         inkscape:export-ydpi="299.97479"
         inkscape:export-xdpi="299.97479"
         inkscape:export-filename="/home/srevinsaju/sugarappstore_small_png.png"
         r="6.3027472"
         cy="142.94814"
         cx="87.345047"
         id="path939"
         style="fill:#00fff0;fill-opacity:1;stroke:url(#linearGradient988);stroke-width:4.73886;stroke-linecap:round;stroke-miterlimit:4;stroke-dasharray:none;stroke-opacity:1" />
      <circle
         inkscape:export-ydpi="299.97479"
         inkscape:export-xdpi="299.97479"
         inkscape:export-filename="/home/srevinsaju/sugarappstore_small_png.png"
         style="fill:#00ff84;fill-opacity:1;stroke:url(#linearGradient996);stroke-width:2.65231;stroke-linecap:round;stroke-miterlimit:4;stroke-dasharray:none;stroke-opacity:1"
         id="path939-5"
         cx="82.079758"
         cy="129.18733"
         r="3.5276096" />
      <circle
         inkscape:export-ydpi="299.97479"
         inkscape:export-xdpi="299.97479"
         inkscape:export-filename="/home/srevinsaju/sugarappstore_small_png.png"
         r="2.1598043"
         cy="120.42488"
         cx="81.650665"
         id="path939-5-9"
         style="fill:#00ff0a;fill-opacity:1;stroke:url(#linearGradient1004);stroke-width:1.6239;stroke-linecap:round;stroke-miterlimit:4;stroke-dasharray:none;stroke-opacity:1" />
    </g>
  </g>
</svg>
